<mxfile host="65bd71144e">
    <diagram id="rRwRrmsIW1T0hQYLPN04" name="Page-1">
        <mxGraphModel dx="1345" dy="505" grid="1" gridSize="10" guides="1" tooltips="1" connect="1" arrows="1" fold="1" page="0" pageScale="1" pageWidth="850" pageHeight="1100" math="0" shadow="0">
            <root>
                <mxCell id="0"/>
                <mxCell id="1" parent="0"/>
                <mxCell id="3B7FvWh_ksODp5pONTqw-6" style="edgeStyle=orthogonalEdgeStyle;rounded=1;orthogonalLoop=1;jettySize=auto;html=1;entryX=0.5;entryY=0;entryDx=0;entryDy=0;entryPerimeter=0;" parent="1" source="L69Xl0EkuoueC68m-8wU-2" target="3B7FvWh_ksODp5pONTqw-4" edge="1">
                    <mxGeometry relative="1" as="geometry">
                        <Array as="points">
                            <mxPoint x="290" y="292.5"/>
                            <mxPoint x="170" y="292.5"/>
                            <mxPoint x="170" y="352.5"/>
                        </Array>
                    </mxGeometry>
                </mxCell>
                <mxCell id="3B7FvWh_ksODp5pONTqw-7" style="edgeStyle=orthogonalEdgeStyle;rounded=1;orthogonalLoop=1;jettySize=auto;html=1;entryX=0.5;entryY=0;entryDx=0;entryDy=0;entryPerimeter=0;" parent="1" source="L69Xl0EkuoueC68m-8wU-2" target="3B7FvWh_ksODp5pONTqw-5" edge="1">
                    <mxGeometry relative="1" as="geometry">
                        <Array as="points">
                            <mxPoint x="290" y="292.5"/>
                            <mxPoint x="410" y="292.5"/>
                            <mxPoint x="410" y="352.5"/>
                        </Array>
                    </mxGeometry>
                </mxCell>
                <mxCell id="L69Xl0EkuoueC68m-8wU-2" value="" style="shape=cylinder3;whiteSpace=wrap;html=1;boundedLbl=1;backgroundOutline=1;size=15;" parent="1" vertex="1">
                    <mxGeometry x="250" y="82.5" width="80" height="140" as="geometry"/>
                </mxCell>
                <mxCell id="L69Xl0EkuoueC68m-8wU-3" value="&lt;h1&gt;Datalake / -warehouse&lt;br&gt;&lt;/h1&gt;&lt;p&gt;Zusammenführung von unterschiedlichen Datenquellen aus der Literatur:&lt;/p&gt;&lt;p&gt;- Tweets (Sältzer, Wong et al., Gimpel et al.)&lt;br&gt;- Politische Reden (Richter et al., Biessmann et al.)&lt;br&gt;- Parteiprogramme&lt;/p&gt;&lt;p&gt;CRISP-DM:&lt;/p&gt;&lt;p&gt;- Business Understanding&lt;br&gt;- Data Understanding&lt;br&gt;- (Data Preperation)&lt;br&gt;&lt;/p&gt;" style="text;html=1;strokeColor=none;fillColor=none;spacing=5;spacingTop=-20;whiteSpace=wrap;overflow=hidden;rounded=0;" parent="1" vertex="1">
                    <mxGeometry x="370" y="40" width="280" height="225" as="geometry"/>
                </mxCell>
                <mxCell id="3B7FvWh_ksODp5pONTqw-9" style="edgeStyle=orthogonalEdgeStyle;rounded=1;orthogonalLoop=1;jettySize=auto;html=1;entryX=0.5;entryY=0;entryDx=0;entryDy=0;" parent="1" source="3B7FvWh_ksODp5pONTqw-4" target="3B7FvWh_ksODp5pONTqw-8" edge="1">
                    <mxGeometry relative="1" as="geometry">
                        <mxPoint x="320" y="492.5" as="targetPoint"/>
                        <Array as="points">
                            <mxPoint x="170" y="472.5"/>
                            <mxPoint x="290" y="472.5"/>
                            <mxPoint x="290" y="522.5"/>
                        </Array>
                    </mxGeometry>
                </mxCell>
                <mxCell id="3B7FvWh_ksODp5pONTqw-10" value="trainiert" style="edgeLabel;html=1;align=center;verticalAlign=middle;resizable=0;points=[];" parent="3B7FvWh_ksODp5pONTqw-9" vertex="1" connectable="0">
                    <mxGeometry x="-0.2942" y="-1" relative="1" as="geometry">
                        <mxPoint x="38" y="-1" as="offset"/>
                    </mxGeometry>
                </mxCell>
                <mxCell id="3B7FvWh_ksODp5pONTqw-4" value="80" style="shape=cylinder3;whiteSpace=wrap;html=1;boundedLbl=1;backgroundOutline=1;size=15;" parent="1" vertex="1">
                    <mxGeometry x="145" y="352.5" width="50" height="60" as="geometry"/>
                </mxCell>
                <mxCell id="3B7FvWh_ksODp5pONTqw-11" style="edgeStyle=orthogonalEdgeStyle;rounded=1;orthogonalLoop=1;jettySize=auto;html=1;entryX=0.5;entryY=0;entryDx=0;entryDy=0;" parent="1" source="3B7FvWh_ksODp5pONTqw-5" target="3B7FvWh_ksODp5pONTqw-8" edge="1">
                    <mxGeometry relative="1" as="geometry">
                        <Array as="points">
                            <mxPoint x="410" y="472.5"/>
                            <mxPoint x="290" y="472.5"/>
                            <mxPoint x="290" y="522.5"/>
                        </Array>
                    </mxGeometry>
                </mxCell>
                <mxCell id="3B7FvWh_ksODp5pONTqw-12" value="validiert" style="edgeLabel;html=1;align=center;verticalAlign=middle;resizable=0;points=[];" parent="3B7FvWh_ksODp5pONTqw-11" vertex="1" connectable="0">
                    <mxGeometry x="-0.1187" y="-1" relative="1" as="geometry">
                        <mxPoint x="-15" y="1" as="offset"/>
                    </mxGeometry>
                </mxCell>
                <mxCell id="3B7FvWh_ksODp5pONTqw-5" value="20" style="shape=cylinder3;whiteSpace=wrap;html=1;boundedLbl=1;backgroundOutline=1;size=15;" parent="1" vertex="1">
                    <mxGeometry x="385" y="352.5" width="50" height="60" as="geometry"/>
                </mxCell>
                <mxCell id="3B7FvWh_ksODp5pONTqw-13" value="Vortrainierte NLP Modelle" style="ellipse;whiteSpace=wrap;html=1;" parent="1" vertex="1">
                    <mxGeometry x="680" y="522.5" width="105" height="60" as="geometry"/>
                </mxCell>
                <mxCell id="3B7FvWh_ksODp5pONTqw-14" value="&lt;div&gt;Unbekannte&lt;br&gt;Daten&lt;br&gt;&lt;/div&gt;" style="ellipse;shape=cloud;whiteSpace=wrap;html=1;" parent="1" vertex="1">
                    <mxGeometry x="450" y="512.5" width="120" height="80" as="geometry"/>
                </mxCell>
                <mxCell id="3B7FvWh_ksODp5pONTqw-15" value="&lt;h1&gt;Train- &amp;amp; Test-Split&lt;br&gt;&lt;/h1&gt;&lt;p&gt;Aufteilung der Multisource Daten in Trainings- und Test-Daten&lt;/p&gt;&lt;p&gt;CRISP-DM:&lt;/p&gt;&lt;p&gt;- Data Preperation&lt;/p&gt;" style="text;html=1;strokeColor=none;fillColor=none;spacing=5;spacingTop=-20;whiteSpace=wrap;overflow=hidden;rounded=0;" parent="1" vertex="1">
                    <mxGeometry x="480" y="315" width="220" height="135" as="geometry"/>
                </mxCell>
                <mxCell id="3B7FvWh_ksODp5pONTqw-16" value="" style="rounded=1;whiteSpace=wrap;html=1;fillColor=default;" parent="1" vertex="1">
                    <mxGeometry x="375" y="682.5" width="280" height="140" as="geometry"/>
                </mxCell>
                <mxCell id="3B7FvWh_ksODp5pONTqw-17" value="Klassifikations-ergebniss" style="shape=hexagon;perimeter=hexagonPerimeter2;whiteSpace=wrap;html=1;fixedSize=1;fillColor=default;" parent="1" vertex="1">
                    <mxGeometry x="390" y="722.5" width="115" height="60" as="geometry"/>
                </mxCell>
                <mxCell id="3B7FvWh_ksODp5pONTqw-18" value="NLP / Sentiment&lt;br&gt;Analysen" style="shape=hexagon;perimeter=hexagonPerimeter2;whiteSpace=wrap;html=1;fixedSize=1;fillColor=default;" parent="1" vertex="1">
                    <mxGeometry x="525" y="722.5" width="115" height="60" as="geometry"/>
                </mxCell>
                <mxCell id="3B7FvWh_ksODp5pONTqw-23" value="&lt;h1&gt;Analyse&lt;/h1&gt;&lt;p&gt;Mögliche Analysen sind:&lt;/p&gt;&lt;p&gt;- Trend Detection&lt;br&gt;- Parteiflügel&lt;br&gt;- (Validierung auf neuen Datensätzen)&lt;br&gt;&lt;/p&gt;" style="text;html=1;strokeColor=none;fillColor=none;spacing=5;spacingTop=-20;whiteSpace=wrap;overflow=hidden;rounded=0;" parent="1" vertex="1">
                    <mxGeometry x="700" y="682.5" width="150" height="140" as="geometry"/>
                </mxCell>
                <mxCell id="3B7FvWh_ksODp5pONTqw-24" value="&lt;h1&gt;Modeling&lt;br&gt;&lt;/h1&gt;&lt;p&gt;Trainieren von Modellen zur klassifikation von Texten und Wörtern.&lt;br&gt;&lt;/p&gt;&lt;p&gt;CRISP-DM:&lt;/p&gt;&lt;p&gt;- Modeling&lt;br&gt;- Evaluation (Validierung)&lt;br&gt;&lt;/p&gt;" style="text;html=1;strokeColor=none;fillColor=none;spacing=5;spacingTop=-20;whiteSpace=wrap;overflow=hidden;rounded=0;" parent="1" vertex="1">
                    <mxGeometry y="477.5" width="170" height="170" as="geometry"/>
                </mxCell>
                <mxCell id="3B7FvWh_ksODp5pONTqw-25" value="3" style="ellipse;whiteSpace=wrap;html=1;fillColor=default;" parent="1" vertex="1">
                    <mxGeometry x="305" y="502.5" width="70" height="50" as="geometry"/>
                </mxCell>
                <mxCell id="3B7FvWh_ksODp5pONTqw-26" value="2" style="ellipse;whiteSpace=wrap;html=1;fillColor=default;" parent="1" vertex="1">
                    <mxGeometry x="210" y="502.5" width="70" height="50" as="geometry"/>
                </mxCell>
                <mxCell id="3B7FvWh_ksODp5pONTqw-8" value="Modell 1" style="ellipse;whiteSpace=wrap;html=1;" parent="1" vertex="1">
                    <mxGeometry x="237.5" y="522.5" width="105" height="60" as="geometry"/>
                </mxCell>
                <mxCell id="3B7FvWh_ksODp5pONTqw-22" style="edgeStyle=orthogonalEdgeStyle;rounded=1;orthogonalLoop=1;jettySize=auto;html=1;entryX=0.5;entryY=0;entryDx=0;entryDy=0;" parent="1" source="3B7FvWh_ksODp5pONTqw-8" target="3B7FvWh_ksODp5pONTqw-17" edge="1">
                    <mxGeometry relative="1" as="geometry">
                        <Array as="points">
                            <mxPoint x="290" y="642.5"/>
                            <mxPoint x="448" y="642.5"/>
                        </Array>
                    </mxGeometry>
                </mxCell>
                <mxCell id="3B7FvWh_ksODp5pONTqw-20" style="edgeStyle=orthogonalEdgeStyle;rounded=1;orthogonalLoop=1;jettySize=auto;html=1;entryX=0.5;entryY=0;entryDx=0;entryDy=0;" parent="1" source="3B7FvWh_ksODp5pONTqw-13" target="3B7FvWh_ksODp5pONTqw-18" edge="1">
                    <mxGeometry relative="1" as="geometry">
                        <Array as="points">
                            <mxPoint x="732" y="642.5"/>
                            <mxPoint x="582" y="642.5"/>
                        </Array>
                    </mxGeometry>
                </mxCell>
                <mxCell id="3B7FvWh_ksODp5pONTqw-19" style="edgeStyle=orthogonalEdgeStyle;rounded=1;orthogonalLoop=1;jettySize=auto;html=1;" parent="1" source="3B7FvWh_ksODp5pONTqw-14" target="3B7FvWh_ksODp5pONTqw-18" edge="1">
                    <mxGeometry relative="1" as="geometry">
                        <Array as="points">
                            <mxPoint x="530" y="642.5"/>
                            <mxPoint x="582" y="642.5"/>
                        </Array>
                    </mxGeometry>
                </mxCell>
                <mxCell id="3B7FvWh_ksODp5pONTqw-21" style="edgeStyle=orthogonalEdgeStyle;rounded=1;orthogonalLoop=1;jettySize=auto;html=1;entryX=0.5;entryY=0;entryDx=0;entryDy=0;" parent="1" source="3B7FvWh_ksODp5pONTqw-14" target="3B7FvWh_ksODp5pONTqw-17" edge="1">
                    <mxGeometry relative="1" as="geometry">
                        <Array as="points">
                            <mxPoint x="490" y="642.5"/>
                            <mxPoint x="448" y="642.5"/>
                        </Array>
                    </mxGeometry>
                </mxCell>
            </root>
        </mxGraphModel>
    </diagram>
</mxfile>
